<svg width="305" height="260" viewBox="0 0 305 260" fill="none" xmlns="http://www.w3.org/2000/svg">
<g clip-path="url(#clip0_10722_4994)">
<path d="M297.56 0.0195312H251.858C247.594 0.0195312 244.243 3.3699 244.243 7.63474V251.367H305.175V7.63474C305.175 3.3699 301.824 0.0195312 297.56 0.0195312ZM259.476 45.7187H279.126L259.476 65.3687V45.7187ZM259.476 97.9678L283.849 114.267L259.476 130.567V97.9678ZM259.476 158.901L283.849 175.201L259.476 191.501V158.901ZM259.476 243.752V224.1L279.126 243.752H259.476ZM289.942 232.935L263.74 206.886L289.942 189.368V232.935ZM289.942 161.034L265.569 144.734L289.942 128.435V161.034ZM289.942 100.102L263.74 82.5827L289.942 56.5335V100.102ZM289.942 30.4863H259.476V15.2519H289.942V30.4863Z" fill="#B4D2D7"/>
<path d="M305.5 252.28C305.5 256.603 301.563 260 296.551 260H8.95088C3.93699 260 0 256.603 0 252.28C0 247.958 3.93699 244.562 8.95088 244.562H296.551C301.563 244.562 305.5 247.958 305.5 252.28Z" fill="#B4D2D7"/>
<path d="M305.176 252.383C305.176 256.648 301.825 260 297.56 260H144.719V244.768H297.56C301.825 244.768 305.176 248.118 305.176 252.383Z" fill="#87A0AF"/>
<path d="M128.063 26.4959C125.071 24.0004 121.403 22.75 117.731 22.75C114.11 22.75 110.485 23.969 107.513 26.4017L107.419 26.4802C100.304 32.3083 94.9466 39.8262 91.7344 48.2126L101.098 60.3971H137.747L143.497 48.2126C140.352 39.8576 135.079 32.3501 128.063 26.4959Z" fill="#3366CC"/>
<path d="M114.176 54.6271C117.388 46.2408 122.746 38.7228 129.861 32.8947L129.955 32.8163C130.845 32.0875 131.806 31.4832 132.796 30.9721C131.322 29.3942 129.741 27.8959 128.063 26.4959C125.071 24.0004 121.403 22.75 117.731 22.75C114.11 22.75 110.485 23.969 107.513 26.4017L107.419 26.4802C100.304 32.3083 94.9466 39.8262 91.7344 48.2126L101.098 60.3971H112.353C112.855 58.4384 113.455 56.5095 114.176 54.6271Z" fill="#5C85D6"/>
<path d="M146.86 66.665V160.019H88.2656V66.9475C88.2656 60.4602 89.4689 54.1247 91.7342 48.2129H143.496C145.699 54.0462 146.86 60.2876 146.86 66.665Z" fill="#C5D3DD"/>
<path d="M173.788 105.749L173.154 105.079C171.156 102.971 167.797 102.971 165.799 105.079L165.166 105.749C159.929 111.274 156.152 117.934 154.069 125.122L159.125 133.516H181.932L184.884 125.122C182.802 117.934 179.024 111.274 173.788 105.749Z" fill="#2E5CB8"/>
<path d="M173.16 125.124C174.466 120.614 176.44 116.313 179.023 112.368C177.489 110.026 175.741 107.81 173.789 105.751L173.156 105.081C171.158 102.973 167.799 102.973 165.801 105.081L165.168 105.751C159.931 111.276 156.153 117.936 154.071 125.124L159.127 133.518H171.541C171.829 130.665 172.371 127.855 173.16 125.124Z" fill="#3366CC"/>
<path d="M186.747 138.27V199.858H152.207V138.27C152.207 133.787 152.845 129.361 154.07 125.123H184.884C186.108 129.361 186.747 133.787 186.747 138.27Z" fill="#E8EDF2"/>
<path d="M70.4828 105.749L69.8498 105.079C67.8513 102.971 64.4926 102.971 62.4941 105.079L61.861 105.749C56.6241 111.274 52.8469 117.934 50.7646 125.122L55.6359 133.591C55.6359 133.591 78.5009 134.183 78.5009 133.591C78.5009 132.999 81.5792 125.122 81.5792 125.122C79.497 117.934 75.7197 111.274 70.4828 105.749Z" fill="#507BD3"/>
<path d="M69.8549 125.124C71.1612 120.614 73.1357 116.313 75.718 112.368C74.1841 110.026 72.4362 107.81 70.4848 105.751L69.8518 105.081C67.8533 102.973 64.4945 102.973 62.496 105.081L61.863 105.751C56.6261 111.276 52.8488 117.936 50.7666 125.124L55.6378 133.593C55.6378 133.593 62.1392 133.761 68.2085 133.829C68.4873 130.869 69.0372 127.954 69.8549 125.124Z" fill="#5C85D6"/>
<path d="M83.4429 138.27V206.784H48.9033V138.27C48.9033 133.787 49.5416 129.361 50.7658 125.123H81.5804C82.8046 129.361 83.4429 133.787 83.4429 138.27Z" fill="#E8EDF2"/>
<path d="M170.881 245.458H196.945C198.651 245.458 200.033 244.076 200.033 242.37V223.561H167.792V242.37C167.792 244.076 169.175 245.458 170.881 245.458Z" fill="#F79595"/>
<path d="M64.7687 245.454H38.7045C36.9989 245.454 35.6162 244.071 35.6162 242.365V221.986H67.8575V242.365C67.8575 244.071 66.4742 245.454 64.7687 245.454Z" fill="#F79595"/>
<path d="M83.3848 136.062L72.8487 147.226C71.1024 149.076 67.9916 147.841 67.9916 145.296V138.27C67.9916 133.787 68.6299 129.361 69.8541 125.123H50.7658C49.5416 129.361 48.9033 133.787 48.9033 138.27V206.784H67.9916V179.709H83.4429C83.4429 179.709 83.4193 136.797 83.3848 136.062Z" fill="#D9E7EC"/>
<path d="M174.511 159.15C172.445 156.937 171.296 154.023 171.296 150.996V138.27C171.296 133.787 171.935 129.361 173.159 125.123H154.07C152.846 129.361 152.208 133.787 152.208 138.27V199.858H166.546H171.297H186.748V172.26L174.511 159.15Z" fill="#D9E7EC"/>
<path d="M132.013 125.123H104.499L26.04 208.254L39.306 218.781H201.779L209.609 208.254L132.013 125.123Z" fill="#B6C4CF"/>
<path d="M35.6162 221.984V242.363C35.6162 244.069 36.9989 245.452 38.7045 245.452H53.7094C52.0039 245.452 50.6212 244.069 50.6212 242.363C50.6212 239.486 52.9535 237.154 55.8304 237.154H67.8575V221.984H50.6212H35.6162Z" fill="#F37C7C"/>
<path d="M200.034 237.156V223.561H182.798H167.793V242.37C167.793 244.076 169.176 245.458 170.881 245.458H185.886C184.181 245.458 182.798 244.076 182.798 242.37V242.365C182.798 239.488 185.13 237.156 188.007 237.156H200.034Z" fill="#F37C7C"/>
<path d="M210.462 210.42V226.131C210.462 227.883 209.039 229.306 207.286 229.306H28.3631C26.6105 229.306 25.1875 227.883 25.1875 226.131V210.42C25.1875 209.614 25.4909 208.84 26.0403 208.254H209.609C210.159 208.84 210.462 209.614 210.462 210.42Z" fill="#D9E7EC"/>
<path d="M146.86 77.368C145.189 75.3083 143.4 73.3359 141.492 71.4714L132.254 62.442C128.374 58.6496 123.25 56.5611 117.824 56.5611C117.117 56.5611 116.416 56.5977 115.722 56.6699C114.619 56.7839 113.77 55.6869 114.167 54.651C114.17 54.6431 114.173 54.6348 114.176 54.6269C115.02 52.4233 116.016 50.2815 117.15 48.2129H91.7342C89.4689 54.1247 88.2656 60.4602 88.2656 66.9475V160.019H110.707V110.427H146.86V77.368Z" fill="#B6C4CF"/>
<path d="M104.499 125.123L72.9785 158.521V218.781H162.671V157.968L132.013 125.123H104.499Z" fill="#9FACBA"/>
<path d="M72.9785 208.256H162.67V229.308H72.9785V208.256Z" fill="#C5D3DD"/>
<path d="M134.179 78.9545L124.94 69.9246C123.919 68.9269 122.739 68.1919 121.485 67.709L120.901 69.2356H114.671L113.641 67.9339C112.583 68.4111 111.586 69.0671 110.709 69.9241L101.47 78.954C89.9392 90.223 83.4414 105.656 83.4414 121.775V236.176C83.4414 239.478 86.1148 242.146 89.4108 242.146H146.237C149.533 242.146 152.207 239.478 152.207 236.176V121.776C152.207 105.657 145.709 90.2235 134.179 78.9545Z" fill="#E8EDF2"/>
<path d="M117.563 150.229C131.406 150.229 142.668 138.968 142.668 125.125C142.668 114.617 136.177 105.6 126.995 101.865C122.877 100.19 121.174 95.226 123.43 91.3954C126.091 86.8763 129.357 82.6873 133.176 78.955L133.677 78.4648L124.94 69.9246C123.919 68.9269 122.739 68.1919 121.485 67.709L120.901 69.2356H114.671L113.641 67.9339C112.583 68.4111 111.586 69.0671 110.709 69.9241L101.47 78.954C89.9392 90.223 83.4414 105.656 83.4414 121.775V236.176C83.4414 239.478 86.1148 242.146 89.4108 242.146H121.116C117.82 242.146 115.147 239.478 115.147 236.176V152.643C115.148 151.309 116.229 150.228 117.563 150.229Z" fill="#D9E7EC"/>
<path d="M117.562 227.817C119.729 227.817 121.486 226.06 121.486 223.893V67.708C118.957 66.7338 116.122 66.8133 113.639 67.934V223.893C113.639 226.06 115.395 227.817 117.562 227.817Z" fill="#C5D3DD"/>
<path d="M113.633 67.9221L113.64 132.64H121.487V67.7034C118.958 66.7293 116.116 66.8015 113.633 67.9221Z" fill="#C5D3DD"/>
<path d="M117.564 142.905C127.383 142.905 135.344 134.944 135.344 125.124C135.344 115.304 127.383 107.344 117.564 107.344C107.744 107.344 99.7832 115.304 99.7832 125.124C99.7832 134.944 107.744 142.905 117.564 142.905Z" fill="#3366CC"/>
<path d="M113.64 125.124C113.64 117.762 118.114 111.445 124.492 108.744C122.363 107.842 120.021 107.344 117.564 107.344C107.744 107.344 99.7832 115.304 99.7832 125.124C99.7832 134.944 107.744 142.905 117.564 142.905C120.021 142.905 122.363 142.405 124.492 141.504C118.114 138.803 113.64 132.486 113.64 125.124Z" fill="#2E5CB8"/>
<path d="M119.907 122.57H116.489C116.43 122.57 116.374 122.547 116.333 122.507C116.291 122.467 116.268 122.413 116.268 122.356C116.268 122.299 116.291 122.245 116.333 122.205C116.374 122.165 116.43 122.142 116.489 122.142H118.369C119.197 122.142 119.99 121.823 120.575 121.256C121.16 120.688 121.489 119.918 121.489 119.116C121.489 118.313 121.16 117.544 120.575 116.976C119.99 116.409 119.197 116.09 118.369 116.09H114.858V118.943C114.188 119.245 113.62 119.727 113.222 120.331C112.824 120.936 112.612 121.638 112.612 122.355C112.611 122.689 112.656 123.022 112.748 123.345C111.783 123.929 111.041 124.802 110.633 125.832C110.225 126.861 110.175 127.992 110.488 129.052C110.802 130.113 111.463 131.045 112.371 131.708C113.28 132.372 114.386 132.731 115.523 132.73H119.907C121.296 132.73 122.628 132.195 123.611 131.242C124.593 130.289 125.145 128.997 125.145 127.649C125.145 126.302 124.593 125.01 123.611 124.057C122.628 123.104 121.296 122.57 119.907 122.57ZM119.907 131.55H115.523C114.558 131.551 113.625 131.214 112.894 130.602C112.164 129.99 111.685 129.143 111.545 128.217C111.405 127.29 111.614 126.346 112.133 125.556C112.653 124.767 113.447 124.185 114.373 123.918C114.073 123.535 113.89 123.08 113.843 122.602C113.796 122.124 113.888 121.643 114.108 121.213C114.328 120.783 114.667 120.421 115.088 120.168C115.509 119.915 115.994 119.781 116.489 119.781H118.369C118.55 119.781 118.724 119.712 118.851 119.588C118.979 119.464 119.051 119.296 119.051 119.12C119.051 118.945 118.979 118.777 118.851 118.653C118.724 118.529 118.55 118.459 118.369 118.459H116.077V117.273H118.369C118.622 117.267 118.874 117.311 119.109 117.402C119.345 117.492 119.559 117.627 119.74 117.798C119.921 117.97 120.065 118.175 120.163 118.402C120.261 118.628 120.311 118.871 120.311 119.116C120.311 119.362 120.261 119.605 120.163 119.831C120.065 120.058 119.921 120.263 119.74 120.434C119.559 120.606 119.345 120.741 119.109 120.831C118.874 120.921 118.622 120.965 118.369 120.96H116.489C116.297 120.955 116.106 120.988 115.927 121.056C115.748 121.124 115.586 121.226 115.448 121.356C115.311 121.486 115.202 121.642 115.127 121.813C115.053 121.985 115.014 122.169 115.014 122.355C115.014 122.542 115.053 122.726 115.127 122.898C115.202 123.069 115.311 123.225 115.448 123.355C115.586 123.485 115.748 123.587 115.927 123.655C116.106 123.723 116.297 123.755 116.489 123.751H119.907C120.963 123.766 121.97 124.183 122.71 124.913C123.451 125.642 123.867 126.625 123.867 127.649C123.867 128.673 123.451 129.656 122.71 130.385C121.97 131.114 120.963 131.532 119.907 131.547V131.55ZM119.907 124.937H115.523C115.151 124.931 114.782 124.996 114.437 125.13C114.091 125.263 113.777 125.462 113.512 125.715C113.246 125.968 113.036 126.269 112.892 126.602C112.748 126.935 112.674 127.292 112.674 127.652C112.674 128.013 112.748 128.37 112.892 128.703C113.036 129.035 113.246 129.337 113.512 129.59C113.777 129.842 114.091 130.041 114.437 130.175C114.782 130.308 115.151 130.374 115.523 130.367H119.907C120.279 130.374 120.648 130.308 120.994 130.175C121.339 130.041 121.653 129.842 121.919 129.59C122.184 129.337 122.395 129.035 122.538 128.703C122.682 128.37 122.756 128.013 122.756 127.652C122.756 127.292 122.682 126.935 122.538 126.602C122.395 126.269 122.184 125.968 121.919 125.715C121.653 125.462 121.339 125.263 120.994 125.13C120.648 124.996 120.279 124.931 119.907 124.937ZM119.907 129.185H115.523C115.104 129.185 114.702 129.024 114.406 128.737C114.11 128.449 113.943 128.059 113.943 127.653C113.943 127.246 114.11 126.856 114.406 126.569C114.702 126.282 115.104 126.12 115.523 126.12H119.907C120.326 126.12 120.728 126.282 121.024 126.569C121.321 126.856 121.487 127.246 121.487 127.653C121.487 128.059 121.321 128.449 121.024 128.737C120.728 129.024 120.326 129.185 119.907 129.185Z" fill="white"/>
<path d="M122.287 195.219L119.102 194.002L115.148 199.858L113.056 247.309L115.77 248.993L117.656 247.602L119.234 250.536C119.234 250.536 120.299 251.145 120.341 251.145C120.346 251.145 120.348 251.17 120.348 251.213H123.911C125.094 251.213 126.054 250.254 126.054 249.071V206.451C126.053 202.397 124.731 198.454 122.287 195.219Z" fill="#B6C4CF"/>
<path d="M119.027 249.07V206.45C119.027 202.54 120.265 198.735 122.545 195.568C122.461 195.451 122.374 195.333 122.287 195.218L119.086 190.982C118.454 190.144 117.196 190.144 116.563 190.982L113.362 195.218C110.919 198.453 109.597 202.396 109.597 206.45V249.07C109.597 250.253 110.556 251.212 111.74 251.212H121.171C119.987 251.212 119.027 250.253 119.027 249.07Z" fill="#9FACBA"/>
<path d="M100.574 163.179C98.4072 163.179 96.6504 161.422 96.6504 159.255V157.142C96.6504 154.976 98.4072 153.219 100.574 153.219C102.741 153.219 104.498 154.976 104.498 157.142V159.255C104.498 161.423 102.741 163.179 100.574 163.179Z" fill="#B6C4CF"/>
<path d="M100.575 184.689C98.4082 184.689 96.6514 182.932 96.6514 180.765V178.652C96.6514 176.485 98.4082 174.729 100.575 174.729C102.742 174.729 104.499 176.485 104.499 178.652V180.765C104.499 182.932 102.742 184.689 100.575 184.689Z" fill="#B6C4CF"/>
<path d="M134.552 163.179C132.385 163.179 130.628 161.422 130.628 159.255V157.142C130.628 154.976 132.385 153.219 134.552 153.219C136.719 153.219 138.475 154.976 138.475 157.142V159.255C138.475 161.423 136.719 163.179 134.552 163.179Z" fill="#C5D3DD"/>
<path d="M134.553 184.689C132.386 184.689 130.629 182.932 130.629 180.765V178.652C130.629 176.485 132.386 174.729 134.553 174.729C136.72 174.729 138.476 176.485 138.476 178.652V180.765C138.476 182.932 136.72 184.689 134.553 184.689Z" fill="#C5D3DD"/>
<path d="M172.679 168.693L209.609 208.255H172.674V168.699L172.679 168.693Z" fill="#C5D3DD"/>
<path d="M62.9757 169.121V208.254H26.04L62.9757 169.121Z" fill="#C5D3DD"/>
</g>
<defs>
<clipPath id="clip0_10722_4994">
<rect width="304.688" height="260" fill="white"/>
</clipPath>
</defs>
</svg>
