<svg width="1440" height="145" viewBox="0 0 1440 145" fill="none" xmlns="http://www.w3.org/2000/svg">
<g clip-path="url(#clip0_10721_4816)">
<path d="M3720 3000C3720 4656.88 2376.88 6000 720 6000C-936.876 6000 -2280 4656.88 -2280 3000C-2280 1343.12 -936.876 0 720 0C2376.88 0 3720 1343.12 3720 3000Z" fill="#E7EDF9"/>
<path d="M-1913.79 3000C-1913.79 1404.65 -668.443 100.388 903.105 5.72204C842.498 2.05993 781.478 0 720 0C-936.876 0 -2280 1343.12 -2280 3000C-2280 4656.88 -936.876 6000 720 6000C781.478 6000 842.498 5997.94 903.105 5994.28C-668.443 5899.61 -1913.79 4595.35 -1913.79 3000Z" fill="#ADC2EB"/>
</g>
<defs>
<clipPath id="clip0_10721_4816">
<rect width="6000" height="6000" fill="white" transform="translate(-2280)"/>
</clipPath>
</defs>
</svg>
