<svg width="821" height="700" viewBox="0 0 821 700" fill="none" xmlns="http://www.w3.org/2000/svg">
<g clip-path="url(#clip0_10721_4830)">
<path d="M801.123 0.0507812H678.082C666.599 0.0507812 657.579 9.07102 657.579 20.5533V676.755H821.626V20.5533C821.626 9.07102 812.605 0.0507812 801.123 0.0507812ZM698.589 123.087H751.493L698.589 175.991V123.087ZM698.589 263.758L764.209 307.641L698.589 351.525V263.758ZM698.589 427.81L764.209 471.693L698.589 515.577V427.81ZM698.589 656.253V603.344L751.493 656.253H698.589ZM780.615 627.131L710.072 556.998L780.615 509.835V627.131ZM780.615 433.551L714.996 389.667L780.615 345.784V433.551ZM780.615 269.504L710.072 222.336L780.615 152.204V269.504ZM780.615 82.0767H698.589V41.0611H780.615V82.0767Z" fill="#B4D2D7"/>
<path d="M408.974 95.0851C400.917 88.3664 391.044 85 381.156 85C371.409 85 361.648 88.2819 353.647 94.8315L353.394 95.0428C334.238 110.734 319.814 130.974 311.166 153.553L336.376 186.358H435.047L450.526 153.553C442.061 131.059 427.863 110.846 408.974 95.0851Z" fill="#3366CC"/>
<path d="M371.583 170.823C380.232 148.244 394.655 128.004 413.811 112.313L414.065 112.101C416.46 110.139 419.048 108.513 421.713 107.136C417.746 102.888 413.488 98.8543 408.971 95.0851C400.915 88.3664 391.041 85 381.153 85C371.406 85 361.645 88.2819 353.644 94.8315L353.391 95.0428C334.235 110.734 319.811 130.974 311.163 153.553L336.373 186.358H366.675C368.025 181.084 369.642 175.891 371.583 170.823Z" fill="#5C85D6"/>
<path d="M459.581 203.235V454.573H301.826V203.996C301.826 186.53 305.066 169.473 311.165 153.557H450.525C456.454 169.262 459.581 186.065 459.581 203.235Z" fill="#C5D3DD"/>
<path d="M532.078 308.461L530.373 306.658C524.993 300.981 515.95 300.981 510.569 306.658L508.865 308.461C494.766 323.335 484.596 341.265 478.99 360.618L492.601 383.217H554.004L561.953 360.618C556.347 341.265 546.177 323.335 532.078 308.461Z" fill="#2E5CB8"/>
<path d="M530.386 360.622C533.903 348.481 539.217 336.9 546.171 326.281C542.041 319.974 537.335 314.007 532.082 308.464L530.377 306.662C524.997 300.985 515.954 300.985 510.573 306.662L508.869 308.464C494.77 323.339 484.6 341.269 478.994 360.622L492.605 383.221H526.028C526.802 375.54 528.262 367.975 530.386 360.622Z" fill="#3366CC"/>
<path d="M566.968 396.017V561.829H473.977V396.017C473.977 383.946 475.695 372.03 478.991 360.621H561.953C565.249 372.03 566.968 383.946 566.968 396.017Z" fill="#E8EDF2"/>
<path d="M253.949 308.461L252.244 306.658C246.864 300.981 237.821 300.981 232.441 306.658L230.736 308.461C216.637 323.335 206.467 341.265 200.861 360.618L213.976 383.42C213.976 383.42 275.536 385.014 275.536 383.42C275.536 381.825 283.824 360.618 283.824 360.618C278.218 341.265 268.048 323.335 253.949 308.461Z" fill="#507BD3"/>
<path d="M252.257 360.622C255.774 348.481 261.09 336.9 268.042 326.281C263.912 319.974 259.206 314.007 253.953 308.464L252.248 306.662C246.868 300.985 237.825 300.985 232.444 306.662L230.74 308.464C216.641 323.339 206.471 341.269 200.865 360.622L213.98 383.424C213.98 383.424 231.484 383.877 247.824 384.059C248.575 376.091 250.055 368.242 252.257 360.622Z" fill="#5C85D6"/>
<path d="M288.841 396.017V580.478H195.85V396.017C195.85 383.946 197.568 372.03 200.864 360.621H283.826C287.122 372.03 288.841 383.946 288.841 396.017Z" fill="#E8EDF2"/>
<path d="M524.252 684.602H594.425C599.017 684.602 602.74 680.879 602.74 676.287V625.646H515.937V676.287C515.937 680.879 519.659 684.602 524.252 684.602Z" fill="#F79595"/>
<path d="M238.564 684.583H168.391C163.799 684.583 160.076 680.861 160.076 676.269V621.402H246.88V676.269C246.88 680.861 243.155 684.583 238.564 684.583Z" fill="#F79595"/>
<path d="M288.684 390.068L260.318 420.123C255.616 425.105 247.241 421.778 247.241 414.927V396.012C247.241 383.94 248.96 372.024 252.256 360.615H200.864C197.568 372.024 195.85 383.94 195.85 396.012V580.472H247.241V507.578H288.841C288.841 507.578 288.777 392.045 288.684 390.068Z" fill="#D9E7EC"/>
<path d="M534.024 452.227C528.463 446.269 525.37 438.424 525.37 430.273V396.012C525.37 383.94 527.088 372.024 530.384 360.615H478.993C475.697 372.024 473.979 383.94 473.979 396.012V561.824H512.582H525.371H566.971V487.524L534.024 452.227Z" fill="#D9E7EC"/>
<path d="M419.608 360.615H345.534L134.297 584.43L170.013 612.77H607.44L628.521 584.43L419.608 360.615Z" fill="#B6C4CF"/>
<path d="M160.078 621.393V676.259C160.078 680.851 163.801 684.574 168.393 684.574H208.791C204.199 684.574 200.476 680.851 200.476 676.259C200.476 668.513 206.755 662.234 214.501 662.234H246.882V621.393H200.476H160.078Z" fill="#F37C7C"/>
<path d="M602.741 662.237V625.635H556.335H515.938V676.276C515.938 680.867 519.66 684.59 524.252 684.59H564.65C560.058 684.59 556.335 680.867 556.335 676.276V676.261C556.335 668.516 562.615 662.237 570.36 662.237H602.741Z" fill="#F37C7C"/>
<path d="M630.816 590.259V632.557C630.816 637.276 626.985 641.107 622.267 641.107H140.55C135.831 641.107 132 637.276 132 632.557V590.259C132 588.09 132.817 586.005 134.296 584.428H628.52C629.999 586.005 630.816 588.09 630.816 590.259Z" fill="#D9E7EC"/>
<path d="M459.581 232.045C455.081 226.5 450.265 221.19 445.128 216.17L420.255 191.86C409.811 181.65 396.014 176.027 381.407 176.027C379.504 176.027 377.615 176.125 375.747 176.32C372.778 176.627 370.492 173.673 371.56 170.884C371.568 170.863 371.576 170.84 371.585 170.819C373.857 164.887 376.539 159.12 379.591 153.551H311.165C305.066 169.467 301.826 186.524 301.826 203.99V454.567H362.246V321.052H459.581V232.045Z" fill="#B6C4CF"/>
<path d="M345.534 360.615L260.67 450.533V612.77H502.149V449.043L419.608 360.615H345.534Z" fill="#9FACBA"/>
<path d="M260.67 584.432H502.148V641.111H260.67V584.432Z" fill="#C5D3DD"/>
<path d="M425.438 236.313L400.564 212.002C397.816 209.316 394.639 207.337 391.262 206.037L389.691 210.147H372.917L370.145 206.643C367.297 207.927 364.612 209.694 362.25 212.001L337.376 236.312C306.332 266.652 288.838 308.203 288.838 351.6V659.603C288.838 668.491 296.035 675.674 304.909 675.674H457.904C466.777 675.674 473.975 668.491 473.975 659.603V351.601C473.976 308.205 456.482 266.653 425.438 236.313Z" fill="#E8EDF2"/>
<path d="M380.703 428.207C417.973 428.207 448.293 397.887 448.293 360.617C448.293 332.327 430.819 308.051 406.098 297.996C395.011 293.486 390.427 280.121 396.5 269.808C403.664 257.641 412.457 246.363 422.738 236.315L424.088 234.995L400.564 212.002C397.816 209.316 394.639 207.337 391.262 206.037L389.691 210.147H372.917L370.145 206.643C367.297 207.927 364.612 209.694 362.25 212.001L337.376 236.312C306.332 266.652 288.838 308.203 288.838 351.6V659.603C288.838 668.491 296.035 675.674 304.909 675.674H390.27C381.397 675.674 374.199 668.491 374.199 659.603V434.706C374.202 431.114 377.113 428.204 380.703 428.207Z" fill="#D9E7EC"/>
<path d="M380.703 637.102C386.537 637.102 391.267 632.373 391.267 626.539V206.041C384.456 203.418 376.824 203.632 370.139 206.649V626.539C370.139 632.373 374.869 637.102 380.703 637.102Z" fill="#C5D3DD"/>
<path d="M370.121 206.617L370.139 380.856H391.267V206.028C384.457 203.405 376.807 203.6 370.121 206.617Z" fill="#C5D3DD"/>
<path d="M380.706 408.487C407.144 408.487 428.576 387.054 428.576 360.616C428.576 334.178 407.144 312.746 380.706 312.746C354.268 312.746 332.836 334.178 332.836 360.616C332.836 387.054 354.268 408.487 380.706 408.487Z" fill="#3366CC"/>
<path d="M370.139 360.616C370.139 340.796 382.186 323.789 399.356 316.517C393.624 314.088 387.321 312.746 380.703 312.746C354.265 312.746 332.833 334.178 332.833 360.616C332.833 387.054 354.265 408.487 380.703 408.487C387.321 408.487 393.624 407.143 399.356 404.716C382.186 397.444 370.139 380.437 370.139 360.616Z" fill="#2E5CB8"/>
<path d="M387.014 353.743H377.81C377.653 353.743 377.502 353.682 377.391 353.574C377.279 353.466 377.217 353.32 377.217 353.167C377.217 353.014 377.279 352.868 377.391 352.76C377.502 352.652 377.653 352.591 377.81 352.591H382.874C385.101 352.591 387.237 351.733 388.813 350.205C390.388 348.677 391.272 346.605 391.272 344.444C391.272 342.283 390.388 340.211 388.813 338.683C387.237 337.155 385.101 336.297 382.874 336.297H373.421V343.979C371.615 344.792 370.086 346.088 369.015 347.716C367.943 349.343 367.373 351.233 367.372 353.165C367.37 354.065 367.493 354.961 367.738 355.829C365.141 357.402 363.143 359.752 362.045 362.525C360.948 365.297 360.811 368.341 361.655 371.196C362.499 374.05 364.279 376.561 366.725 378.347C369.17 380.133 372.149 381.099 375.211 381.097H387.014C390.754 381.097 394.34 379.656 396.985 377.091C399.629 374.525 401.115 371.046 401.115 367.419C401.115 363.791 399.629 360.312 396.985 357.747C394.34 355.181 390.754 353.743 387.014 353.743ZM387.014 377.921H375.211C372.612 377.923 370.099 377.017 368.132 375.369C366.166 373.721 364.876 371.441 364.5 368.946C364.124 366.452 364.686 363.909 366.084 361.784C367.482 359.658 369.622 358.092 372.113 357.372C371.307 356.343 370.813 355.116 370.687 353.829C370.561 352.542 370.809 351.247 371.401 350.089C371.993 348.932 372.907 347.957 374.039 347.277C375.172 346.596 376.478 346.235 377.81 346.236H382.874C383.36 346.236 383.827 346.048 384.171 345.714C384.515 345.38 384.709 344.928 384.709 344.456C384.709 343.983 384.515 343.531 384.171 343.197C383.827 342.863 383.36 342.675 382.874 342.675H376.702V339.482H382.874C383.555 339.467 384.232 339.585 384.866 339.828C385.5 340.071 386.077 340.435 386.564 340.897C387.051 341.359 387.438 341.911 387.702 342.521C387.966 343.13 388.102 343.784 388.102 344.445C388.102 345.106 387.966 345.76 387.702 346.37C387.438 346.979 387.051 347.531 386.564 347.993C386.077 348.456 385.5 348.819 384.866 349.062C384.232 349.305 383.555 349.423 382.874 349.409H377.81C377.294 349.396 376.78 349.484 376.298 349.668C375.817 349.851 375.379 350.126 375.009 350.476C374.639 350.826 374.345 351.244 374.144 351.706C373.944 352.168 373.84 352.664 373.84 353.166C373.84 353.667 373.944 354.163 374.144 354.625C374.345 355.087 374.639 355.506 375.009 355.856C375.379 356.206 375.817 356.481 376.298 356.664C376.78 356.847 377.294 356.935 377.81 356.923H387.014C389.855 356.963 392.566 358.087 394.561 360.051C396.556 362.015 397.674 364.661 397.674 367.417C397.674 370.174 396.556 372.82 394.561 374.784C392.566 376.748 389.855 377.871 387.014 377.912V377.921ZM387.014 360.117H375.211C374.21 360.099 373.216 360.276 372.286 360.635C371.356 360.995 370.509 361.531 369.795 362.211C369.081 362.892 368.514 363.703 368.127 364.599C367.739 365.494 367.54 366.456 367.54 367.427C367.54 368.398 367.739 369.359 368.127 370.254C368.514 371.15 369.081 371.962 369.795 372.642C370.509 373.323 371.356 373.858 372.286 374.218C373.216 374.578 374.21 374.754 375.211 374.737H387.014C388.015 374.754 389.009 374.578 389.939 374.218C390.869 373.858 391.715 373.323 392.429 372.642C393.144 371.962 393.711 371.15 394.098 370.254C394.485 369.359 394.685 368.398 394.685 367.427C394.685 366.456 394.485 365.494 394.098 364.599C393.711 363.703 393.144 362.892 392.429 362.211C391.715 361.531 390.869 360.995 389.939 360.635C389.009 360.276 388.015 360.099 387.014 360.117ZM387.014 371.554H375.211C374.083 371.554 373.001 371.12 372.203 370.346C371.405 369.572 370.957 368.522 370.957 367.428C370.957 366.333 371.405 365.284 372.203 364.51C373.001 363.736 374.083 363.301 375.211 363.301H387.014C388.142 363.301 389.224 363.736 390.022 364.51C390.82 365.284 391.268 366.333 391.268 367.428C391.268 368.522 390.82 369.572 390.022 370.346C389.224 371.12 388.142 371.554 387.014 371.554Z" fill="white"/>
<path d="M393.423 549.333L384.848 546.057L374.202 561.824L368.568 689.576L375.876 694.11L380.954 690.365L385.202 698.264C385.202 698.264 388.071 699.903 388.182 699.903C388.196 699.903 388.202 699.971 388.202 700.088H397.794C400.98 700.088 403.563 697.504 403.563 694.318V579.573C403.562 568.658 400.002 558.042 393.423 549.333Z" fill="#B6C4CF"/>
<path d="M384.647 694.322V579.576C384.647 569.05 387.98 558.806 394.118 550.279C393.891 549.965 393.657 549.646 393.424 549.336L384.806 537.932C383.103 535.676 379.716 535.676 378.013 537.932L369.395 549.336C362.816 558.045 359.257 568.661 359.257 579.576V694.322C359.257 697.508 361.84 700.091 365.026 700.091H390.418C387.23 700.091 384.647 697.508 384.647 694.322Z" fill="#9FACBA"/>
<path d="M334.965 463.075C329.131 463.075 324.401 458.345 324.401 452.511V446.824C324.401 440.99 329.131 436.26 334.965 436.26C340.799 436.26 345.529 440.99 345.529 446.824V452.511C345.529 458.347 340.799 463.075 334.965 463.075Z" fill="#B6C4CF"/>
<path d="M334.965 520.984C329.131 520.984 324.401 516.254 324.401 510.42V504.732C324.401 498.898 329.131 494.168 334.965 494.168C340.799 494.168 345.529 498.898 345.529 504.732V510.42C345.529 516.254 340.799 520.984 334.965 520.984Z" fill="#B6C4CF"/>
<path d="M426.443 463.075C420.609 463.075 415.879 458.345 415.879 452.511V446.824C415.879 440.99 420.609 436.26 426.443 436.26C432.277 436.26 437.007 440.99 437.007 446.824V452.511C437.007 458.347 432.278 463.075 426.443 463.075Z" fill="#C5D3DD"/>
<path d="M426.443 520.984C420.609 520.984 415.879 516.254 415.879 510.42V504.732C415.879 498.898 420.609 494.168 426.443 494.168C432.277 494.168 437.007 498.898 437.007 504.732V510.42C437.007 516.254 432.278 520.984 426.443 520.984Z" fill="#C5D3DD"/>
<path d="M529.091 477.92L628.519 584.433H529.077V477.934L529.091 477.92Z" fill="#C5D3DD"/>
<path d="M233.737 479.074V584.432H134.295L233.737 479.074Z" fill="#C5D3DD"/>
</g>
<defs>
<clipPath id="clip0_10721_4830">
<rect width="820.312" height="700" fill="white"/>
</clipPath>
</defs>
</svg>
