<svg width="22" height="24" viewBox="0 0 22 24" fill="none" xmlns="http://www.w3.org/2000/svg">
<path d="M13.8779 9.34587H8.94741C8.86309 9.34587 8.78222 9.31338 8.7226 9.25554C8.66298 9.19771 8.62948 9.11926 8.62948 9.03747C8.62948 8.95568 8.66298 8.87723 8.7226 8.8194C8.78222 8.76156 8.86309 8.72907 8.94741 8.72907H11.66C12.8533 8.72907 13.9977 8.26923 14.8415 7.45072C15.6853 6.63222 16.1593 5.52208 16.1593 4.36453C16.1593 3.20699 15.6853 2.09685 14.8415 1.27834C13.9977 0.459834 12.8533 0 11.66 0H6.59601V4.11534C5.62863 4.55077 4.80967 5.2453 4.23559 6.11712C3.66151 6.98894 3.35622 8.00174 3.35567 9.03624C3.35431 9.51839 3.42019 9.99851 3.55152 10.4635C2.16029 11.3061 1.08975 12.5653 0.501796 14.0505C-0.0861546 15.5358 -0.159535 17.1664 0.292753 18.6957C0.745041 20.225 1.6984 21.5699 3.00864 22.5269C4.31888 23.4839 5.91474 24.001 7.55488 24H13.8779C15.8813 24 17.8027 23.228 19.2193 21.8538C20.636 20.4796 21.4319 18.6157 21.4319 16.6723C21.4319 14.7289 20.636 12.8651 19.2193 11.4909C17.8027 10.1167 15.8813 9.34587 13.8779 9.34587ZM13.8779 22.2988H7.55488C6.16256 22.2997 4.81646 21.8143 3.76283 20.9313C2.7092 20.0484 2.01847 18.8271 1.81701 17.4907C1.61555 16.1543 1.91681 14.7922 2.6657 13.6536C3.41458 12.515 4.56102 11.676 5.89529 11.2901C5.46343 10.7388 5.19889 10.0815 5.13148 9.39218C5.06408 8.7029 5.19649 8.00905 5.51379 7.38885C5.83109 6.76865 6.32066 6.24675 6.92733 5.88197C7.534 5.51719 8.23365 5.32404 8.94741 5.32429H11.66C11.9207 5.32429 12.1707 5.22382 12.3551 5.04499C12.5395 4.86616 12.643 4.62361 12.643 4.3707C12.643 4.11779 12.5395 3.87525 12.3551 3.69642C12.1707 3.51758 11.9207 3.41712 11.66 3.41712H8.35352V1.70609H11.66C12.0249 1.69847 12.3878 1.76161 12.7272 1.89181C13.0667 2.02202 13.3759 2.21666 13.6368 2.46433C13.8977 2.712 14.105 3.00771 14.2465 3.33412C14.388 3.66053 14.4608 4.01106 14.4608 4.36515C14.4608 4.71924 14.388 5.06977 14.2465 5.39618C14.105 5.72259 13.8977 6.0183 13.6368 6.26597C13.3759 6.51364 13.0667 6.70829 12.7272 6.83849C12.3878 6.96869 12.0249 7.03183 11.66 7.02421H8.94741C8.67062 7.01756 8.39526 7.0647 8.13754 7.16286C7.87982 7.26102 7.64494 7.4082 7.44676 7.59575C7.24857 7.7833 7.09107 8.00742 6.98353 8.25492C6.876 8.50241 6.8206 8.76827 6.8206 9.03685C6.8206 9.30543 6.876 9.5713 6.98353 9.81879C7.09107 10.0663 7.24857 10.2904 7.44676 10.478C7.64494 10.6655 7.87982 10.8127 8.13754 10.9108C8.39526 11.009 8.67062 11.0561 8.94741 11.0495H13.8779C15.4001 11.0714 16.8524 11.6733 17.921 12.7253C18.9895 13.7773 19.5885 15.1949 19.5885 16.6717C19.5885 18.1485 18.9895 19.5661 17.921 20.6181C16.8524 21.6701 15.4001 22.272 13.8779 22.2939V22.2988ZM13.8779 12.7605H7.55488C7.0187 12.7513 6.48599 12.8458 5.98785 13.0384C5.48972 13.2311 5.03614 13.5181 4.65359 13.8826C4.27104 14.2472 3.96719 14.682 3.75977 15.1617C3.55235 15.6414 3.44553 16.1564 3.44553 16.6766C3.44553 17.1968 3.55235 17.7118 3.75977 18.1915C3.96719 18.6713 4.27104 19.1061 4.65359 19.4707C5.03614 19.8352 5.48972 20.1222 5.98785 20.3149C6.48599 20.5075 7.0187 20.602 7.55488 20.5928H13.8779C14.414 20.602 14.9467 20.5075 15.4449 20.3149C15.943 20.1222 16.3966 19.8352 16.7792 19.4707C17.1617 19.1061 17.4656 18.6713 17.673 18.1915C17.8804 17.7118 17.9872 17.1968 17.9872 16.6766C17.9872 16.1564 17.8804 15.6414 17.673 15.1617C17.4656 14.682 17.1617 14.2472 16.7792 13.8826C16.3966 13.5181 15.943 13.2311 15.4449 13.0384C14.9467 12.8458 14.414 12.7513 13.8779 12.7605ZM13.8779 18.8879H7.55488C6.95047 18.8879 6.37082 18.655 5.94344 18.2404C5.51606 17.8258 5.27597 17.2636 5.27597 16.6773C5.27597 16.091 5.51606 15.5287 5.94344 15.1141C6.37082 14.6995 6.95047 14.4666 7.55488 14.4666H13.8779C14.4823 14.4666 15.0619 14.6995 15.4893 15.1141C15.9167 15.5287 16.1568 16.091 16.1568 16.6773C16.1568 17.2636 15.9167 17.8258 15.4893 18.2404C15.0619 18.655 14.4823 18.8879 13.8779 18.8879Z" fill="white"/>
</svg>
