<svg width="1440" height="748" viewBox="0 0 1440 748" fill="none" xmlns="http://www.w3.org/2000/svg">
<g clip-path="url(#clip0_10722_4863)">
<path d="M1355.12 0.0507812H1232.08C1220.6 0.0507812 1211.58 9.07102 1211.58 20.5533V676.755H1375.63V20.5533C1375.63 9.07102 1366.61 0.0507812 1355.12 0.0507812V0.0507812ZM1252.59 123.087H1305.49L1252.59 175.991V123.087ZM1252.59 263.758L1318.21 307.641L1252.59 351.525V263.758ZM1252.59 427.81L1318.21 471.693L1252.59 515.577V427.81ZM1252.59 656.253V603.344L1305.49 656.253H1252.59ZM1334.62 627.131L1264.07 556.998L1334.62 509.835V627.131ZM1334.62 433.551L1269 389.667L1334.62 345.784V433.551ZM1334.62 269.504L1264.07 222.336L1334.62 152.204V269.504ZM1334.62 82.0767H1252.59V41.0611H1334.62V82.0767Z" fill="#B4D2D7"/>
<path d="M962.974 95.0851C954.917 88.3664 945.044 85 935.156 85C925.409 85 915.648 88.2819 907.647 94.8315L907.394 95.0428C888.238 110.734 873.814 130.974 865.166 153.553L890.376 186.358H989.047L1004.53 153.553C996.061 131.059 981.863 110.846 962.974 95.0851V95.0851Z" fill="#3366CC"/>
<path d="M925.583 170.823C934.232 148.244 948.655 128.004 967.811 112.313L968.065 112.101C970.46 110.139 973.048 108.513 975.713 107.136C971.746 102.888 967.488 98.8543 962.971 95.0851C954.915 88.3664 945.041 85 935.153 85C925.406 85 915.645 88.2819 907.644 94.8315L907.391 95.0428C888.235 110.734 873.811 130.974 865.163 153.553L890.373 186.358H920.675C922.025 181.084 923.642 175.891 925.583 170.823V170.823Z" fill="#5C85D6"/>
<path d="M1013.58 203.235V454.573H855.826V203.996C855.826 186.53 859.066 169.473 865.165 153.557H1004.52C1010.45 169.262 1013.58 186.065 1013.58 203.235Z" fill="#C5D3DD"/>
<path d="M1086.08 308.461L1084.37 306.658C1078.99 300.981 1069.95 300.981 1064.57 306.658L1062.87 308.461C1048.77 323.335 1038.6 341.265 1032.99 360.618L1046.6 383.217H1108L1115.95 360.618C1110.35 341.265 1100.18 323.335 1086.08 308.461V308.461Z" fill="#2E5CB8"/>
<path d="M1084.39 360.622C1087.9 348.481 1093.22 336.9 1100.17 326.281C1096.04 319.974 1091.34 314.007 1086.08 308.464L1084.38 306.662C1079 300.985 1069.95 300.985 1064.57 306.662L1062.87 308.464C1048.77 323.339 1038.6 341.269 1032.99 360.622L1046.6 383.221H1080.03C1080.8 375.54 1082.26 367.975 1084.39 360.622V360.622Z" fill="#3366CC"/>
<path d="M1120.97 396.017V561.829H1027.98V396.017C1027.98 383.946 1029.69 372.03 1032.99 360.621H1115.95C1119.25 372.03 1120.97 383.946 1120.97 396.017V396.017Z" fill="#E8EDF2"/>
<path d="M807.949 308.461L806.244 306.658C800.864 300.981 791.821 300.981 786.441 306.658L784.736 308.461C770.637 323.335 760.467 341.265 754.861 360.618L767.976 383.42C767.976 383.42 829.536 385.014 829.536 383.42C829.536 381.825 837.824 360.618 837.824 360.618C832.218 341.265 822.048 323.335 807.949 308.461Z" fill="#507BD3"/>
<path d="M806.257 360.622C809.774 348.481 815.09 336.9 822.042 326.281C817.912 319.974 813.206 314.007 807.953 308.464L806.248 306.662C800.868 300.985 791.825 300.985 786.444 306.662L784.74 308.464C770.641 323.339 760.471 341.269 754.865 360.622L767.98 383.424C767.98 383.424 785.484 383.877 801.824 384.059C802.575 376.091 804.055 368.242 806.257 360.622V360.622Z" fill="#5C85D6"/>
<path d="M842.841 396.017V580.478H749.85V396.017C749.85 383.946 751.568 372.03 754.864 360.621H837.826C841.122 372.03 842.841 383.946 842.841 396.017V396.017Z" fill="#E8EDF2"/>
<path d="M1078.25 684.602H1148.43C1153.02 684.602 1156.74 680.879 1156.74 676.287V625.646H1069.94V676.287C1069.94 680.879 1073.66 684.602 1078.25 684.602V684.602Z" fill="#F79595"/>
<path d="M792.564 684.583H722.391C717.799 684.583 714.076 680.861 714.076 676.269V621.402H800.88V676.269C800.88 680.861 797.155 684.583 792.564 684.583V684.583Z" fill="#F79595"/>
<path d="M842.684 390.068L814.318 420.123C809.616 425.105 801.241 421.778 801.241 414.927V396.012C801.241 383.94 802.96 372.024 806.256 360.615H754.864C751.568 372.024 749.85 383.94 749.85 396.012V580.472H801.241V507.578H842.841C842.841 507.578 842.777 392.045 842.684 390.068V390.068Z" fill="#D9E7EC"/>
<path d="M1088.02 452.227C1082.46 446.269 1079.37 438.424 1079.37 430.273V396.012C1079.37 383.94 1081.09 372.024 1084.38 360.615H1032.99C1029.7 372.024 1027.98 383.94 1027.98 396.012V561.824H1066.58H1079.37H1120.97V487.524L1088.02 452.227Z" fill="#D9E7EC"/>
<path d="M973.608 360.615H899.534L688.297 584.43L724.013 612.77H1161.44L1182.52 584.43L973.608 360.615Z" fill="#B6C4CF"/>
<path d="M714.078 621.393V676.259C714.078 680.851 717.801 684.574 722.393 684.574H762.791C758.199 684.574 754.476 680.851 754.476 676.259C754.476 668.513 760.755 662.234 768.501 662.234H800.882V621.393H754.476H714.078Z" fill="#F37C7C"/>
<path d="M1156.74 662.237V625.635H1110.34H1069.94V676.276C1069.94 680.867 1073.66 684.59 1078.25 684.59H1118.65C1114.06 684.59 1110.34 680.867 1110.34 676.276V676.261C1110.34 668.516 1116.61 662.237 1124.36 662.237H1156.74Z" fill="#F37C7C"/>
<path d="M1184.82 590.259V632.557C1184.82 637.276 1180.99 641.107 1176.27 641.107H694.55C689.831 641.107 686 637.276 686 632.557V590.259C686 588.09 686.817 586.005 688.296 584.428H1182.52C1184 586.005 1184.82 588.09 1184.82 590.259Z" fill="#D9E7EC"/>
<path d="M1013.58 232.045C1009.08 226.5 1004.27 221.19 999.128 216.17L974.255 191.86C963.811 181.65 950.014 176.027 935.407 176.027C933.504 176.027 931.615 176.125 929.747 176.32C926.778 176.627 924.492 173.673 925.56 170.884C925.568 170.863 925.576 170.84 925.585 170.819C927.857 164.887 930.539 159.12 933.591 153.551H865.165C859.066 169.467 855.826 186.524 855.826 203.99V454.567H916.246V321.052H1013.58V232.045Z" fill="#B6C4CF"/>
<path d="M899.534 360.615L814.67 450.533V612.77H1056.15V449.043L973.608 360.615H899.534Z" fill="#9FACBA"/>
<path d="M814.67 584.432H1056.15V641.111H814.67V584.432Z" fill="#C5D3DD"/>
<path d="M979.438 236.313L954.564 212.002C951.816 209.316 948.639 207.337 945.262 206.037L943.691 210.147H926.917L924.145 206.643C921.297 207.927 918.612 209.694 916.25 212.001L891.376 236.312C860.332 266.652 842.838 308.203 842.838 351.6V659.603C842.838 668.491 850.035 675.674 858.909 675.674H1011.9C1020.78 675.674 1027.97 668.491 1027.97 659.603V351.601C1027.98 308.205 1010.48 266.653 979.438 236.313V236.313Z" fill="#E8EDF2"/>
<path d="M934.703 428.207C971.973 428.207 1002.29 397.887 1002.29 360.617C1002.29 332.327 984.819 308.051 960.098 297.996C949.011 293.486 944.427 280.121 950.5 269.808C957.664 257.641 966.457 246.363 976.738 236.315L978.088 234.995L954.564 212.002C951.816 209.316 948.639 207.337 945.262 206.037L943.691 210.147H926.917L924.145 206.643C921.297 207.927 918.612 209.694 916.25 212.001L891.376 236.312C860.332 266.652 842.838 308.203 842.838 351.6V659.603C842.838 668.491 850.035 675.674 858.909 675.674H944.27C935.397 675.674 928.199 668.491 928.199 659.603V434.706C928.202 431.114 931.113 428.204 934.703 428.207V428.207Z" fill="#D9E7EC"/>
<path d="M934.703 637.102C940.537 637.102 945.267 632.373 945.267 626.539V206.041C938.456 203.418 930.824 203.632 924.139 206.649V626.539C924.139 632.373 928.869 637.102 934.703 637.102V637.102Z" fill="#C5D3DD"/>
<path d="M924.121 206.617L924.139 380.856H945.267V206.028C938.457 203.405 930.807 203.6 924.121 206.617Z" fill="#C5D3DD"/>
<path d="M934.706 408.487C961.144 408.487 982.576 387.054 982.576 360.616C982.576 334.178 961.144 312.746 934.706 312.746C908.268 312.746 886.836 334.178 886.836 360.616C886.836 387.054 908.268 408.487 934.706 408.487Z" fill="#3366CC"/>
<path d="M924.139 360.616C924.139 340.796 936.186 323.789 953.356 316.517C947.624 314.088 941.321 312.746 934.703 312.746C908.265 312.746 886.833 334.178 886.833 360.616C886.833 387.054 908.265 408.487 934.703 408.487C941.321 408.487 947.624 407.143 953.356 404.716C936.186 397.444 924.139 380.437 924.139 360.616Z" fill="#2E5CB8"/>
<path d="M941.014 353.743H931.81C931.653 353.743 931.502 353.682 931.391 353.574C931.279 353.466 931.217 353.32 931.217 353.167C931.217 353.014 931.279 352.868 931.391 352.76C931.502 352.652 931.653 352.591 931.81 352.591H936.874C939.101 352.591 941.237 351.733 942.813 350.205C944.388 348.677 945.272 346.605 945.272 344.444C945.272 342.283 944.388 340.211 942.813 338.683C941.237 337.155 939.101 336.297 936.874 336.297H927.421V343.979C925.615 344.792 924.086 346.088 923.015 347.716C921.943 349.343 921.373 351.233 921.372 353.165C921.37 354.065 921.493 354.961 921.738 355.829C919.141 357.402 917.143 359.752 916.045 362.525C914.948 365.297 914.811 368.341 915.655 371.196C916.499 374.05 918.279 376.561 920.725 378.347C923.17 380.133 926.149 381.099 929.211 381.097H941.014C944.754 381.097 948.34 379.656 950.985 377.091C953.629 374.525 955.115 371.046 955.115 367.419C955.115 363.791 953.629 360.312 950.985 357.747C948.34 355.181 944.754 353.743 941.014 353.743ZM941.014 377.921H929.211C926.612 377.923 924.099 377.017 922.132 375.369C920.166 373.721 918.876 371.441 918.5 368.946C918.124 366.452 918.686 363.909 920.084 361.784C921.482 359.658 923.622 358.092 926.113 357.372C925.307 356.343 924.813 355.116 924.687 353.829C924.561 352.542 924.809 351.247 925.401 350.089C925.993 348.932 926.907 347.957 928.039 347.277C929.172 346.596 930.478 346.235 931.81 346.236H936.874C937.36 346.236 937.827 346.048 938.171 345.714C938.515 345.38 938.709 344.928 938.709 344.456C938.709 343.983 938.515 343.531 938.171 343.197C937.827 342.863 937.36 342.675 936.874 342.675H930.702V339.482H936.874C937.555 339.467 938.232 339.585 938.866 339.828C939.5 340.071 940.077 340.435 940.564 340.897C941.051 341.359 941.438 341.911 941.702 342.521C941.966 343.13 942.102 343.784 942.102 344.445C942.102 345.106 941.966 345.76 941.702 346.37C941.438 346.979 941.051 347.531 940.564 347.993C940.077 348.456 939.5 348.819 938.866 349.062C938.232 349.305 937.555 349.423 936.874 349.409H931.81C931.294 349.396 930.78 349.484 930.298 349.668C929.817 349.851 929.379 350.126 929.009 350.476C928.639 350.826 928.345 351.244 928.144 351.706C927.944 352.168 927.84 352.664 927.84 353.166C927.84 353.667 927.944 354.163 928.144 354.625C928.345 355.087 928.639 355.506 929.009 355.856C929.379 356.206 929.817 356.481 930.298 356.664C930.78 356.847 931.294 356.935 931.81 356.923H941.014C943.855 356.963 946.566 358.087 948.561 360.051C950.556 362.015 951.674 364.661 951.674 367.417C951.674 370.174 950.556 372.82 948.561 374.784C946.566 376.748 943.855 377.871 941.014 377.912V377.921ZM941.014 360.117H929.211C928.21 360.099 927.216 360.276 926.286 360.635C925.356 360.995 924.509 361.531 923.795 362.211C923.081 362.892 922.514 363.703 922.127 364.599C921.739 365.494 921.54 366.456 921.54 367.427C921.54 368.398 921.739 369.359 922.127 370.254C922.514 371.15 923.081 371.962 923.795 372.642C924.509 373.323 925.356 373.858 926.286 374.218C927.216 374.578 928.21 374.754 929.211 374.737H941.014C942.015 374.754 943.009 374.578 943.939 374.218C944.869 373.858 945.715 373.323 946.429 372.642C947.144 371.962 947.711 371.15 948.098 370.254C948.485 369.359 948.685 368.398 948.685 367.427C948.685 366.456 948.485 365.494 948.098 364.599C947.711 363.703 947.144 362.892 946.429 362.211C945.715 361.531 944.869 360.995 943.939 360.635C943.009 360.276 942.015 360.099 941.014 360.117ZM941.014 371.554H929.211C928.083 371.554 927.001 371.12 926.203 370.346C925.405 369.572 924.957 368.522 924.957 367.428C924.957 366.333 925.405 365.284 926.203 364.51C927.001 363.736 928.083 363.301 929.211 363.301H941.014C942.142 363.301 943.224 363.736 944.022 364.51C944.82 365.284 945.268 366.333 945.268 367.428C945.268 368.522 944.82 369.572 944.022 370.346C943.224 371.12 942.142 371.554 941.014 371.554Z" fill="white"/>
<path d="M947.423 549.333L938.848 546.057L928.202 561.824L922.568 689.576L929.876 694.11L934.954 690.365L939.202 698.264C939.202 698.264 942.071 699.903 942.182 699.903C942.196 699.903 942.202 699.971 942.202 700.088H951.794C954.98 700.088 957.563 697.504 957.563 694.318V579.573C957.562 568.658 954.002 558.042 947.423 549.333Z" fill="#B6C4CF"/>
<path d="M938.647 694.322V579.576C938.647 569.05 941.98 558.806 948.118 550.279C947.891 549.965 947.657 549.646 947.424 549.336L938.806 537.932C937.103 535.676 933.716 535.676 932.013 537.932L923.395 549.336C916.816 558.045 913.257 568.661 913.257 579.576V694.322C913.257 697.508 915.84 700.091 919.026 700.091H944.418C941.23 700.091 938.647 697.508 938.647 694.322Z" fill="#9FACBA"/>
<path d="M888.965 463.075C883.131 463.075 878.401 458.345 878.401 452.511V446.824C878.401 440.99 883.131 436.26 888.965 436.26C894.799 436.26 899.529 440.99 899.529 446.824V452.511C899.529 458.347 894.799 463.075 888.965 463.075Z" fill="#B6C4CF"/>
<path d="M888.965 520.984C883.131 520.984 878.401 516.254 878.401 510.42V504.732C878.401 498.898 883.131 494.168 888.965 494.168C894.799 494.168 899.529 498.898 899.529 504.732V510.42C899.529 516.254 894.799 520.984 888.965 520.984Z" fill="#B6C4CF"/>
<path d="M980.443 463.075C974.609 463.075 969.879 458.345 969.879 452.511V446.824C969.879 440.99 974.609 436.26 980.443 436.26C986.277 436.26 991.007 440.99 991.007 446.824V452.511C991.007 458.347 986.278 463.075 980.443 463.075Z" fill="#C5D3DD"/>
<path d="M980.443 520.984C974.609 520.984 969.879 516.254 969.879 510.42V504.732C969.879 498.898 974.609 494.168 980.443 494.168C986.277 494.168 991.007 498.898 991.007 504.732V510.42C991.007 516.254 986.278 520.984 980.443 520.984Z" fill="#C5D3DD"/>
<path d="M1083.09 477.92L1182.52 584.433H1083.08V477.934L1083.09 477.92Z" fill="#C5D3DD"/>
<path d="M787.737 479.074V584.432H688.295L787.737 479.074Z" fill="#C5D3DD"/>
</g>
<g clip-path="url(#clip1_10722_4863)">
<path d="M3720 3603C3720 5259.88 2376.88 6603 720 6603C-936.876 6603 -2280 5259.88 -2280 3603C-2280 1946.12 -936.876 603 720 603C2376.88 603 3720 1946.12 3720 3603Z" fill="#E7EDF9"/>
<path d="M-1913.79 3603C-1913.79 2007.65 -668.443 703.388 903.105 608.722C842.498 605.06 781.478 603 720 603C-936.876 603 -2280 1946.12 -2280 3603C-2280 5259.88 -936.876 6603 720 6603C781.478 6603 842.498 6600.94 903.105 6597.28C-668.443 6502.61 -1913.79 5198.35 -1913.79 3603Z" fill="#ADC2EB"/>
</g>
<defs>
<clipPath id="clip0_10722_4863">
<rect width="820.312" height="700" fill="white" transform="translate(554)"/>
</clipPath>
<clipPath id="clip1_10722_4863">
<rect width="6000" height="6000" fill="white" transform="translate(-2280 603)"/>
</clipPath>
</defs>
</svg>
